<svg width="100" height="100" viewBox="0 0 100 100" fill="none" xmlns="http://www.w3.org/2000/svg">
<path d="M77.9209 52.3695C77.499 47.634 76.8041 46.7117 76.5416 46.3648C75.9381 45.5633 74.9724 45.0395 73.9506 44.4898C73.8928 44.4593 73.8429 44.4157 73.8048 44.3626C73.7667 44.3094 73.7416 44.2482 73.7312 44.1836C73.7209 44.1191 73.7257 44.053 73.7452 43.9906C73.7648 43.9283 73.7986 43.8713 73.8439 43.8242C74.0332 43.6323 74.1786 43.4017 74.2702 43.1482C74.3619 42.8947 74.3975 42.6244 74.3748 42.3559C74.3307 41.8796 74.1093 41.4373 73.7544 41.1167C73.3995 40.7961 72.937 40.6206 72.4588 40.625H70.6306C70.5523 40.6255 70.474 40.6306 70.3963 40.6402C70.3429 40.6171 70.2876 40.5987 70.231 40.5852C69.1482 38.2965 67.6658 35.1629 64.5931 33.6336C60.0357 31.3672 51.6404 31.25 49.9998 31.25C48.3592 31.25 39.9639 31.3672 35.4123 33.6301C32.3396 35.1594 30.8572 38.293 29.7744 40.5816L29.765 40.6004C29.711 40.608 29.658 40.6213 29.6068 40.6402C29.5291 40.6306 29.4508 40.6255 29.3724 40.625H27.5408C27.0626 40.6206 26.6001 40.7961 26.2452 41.1167C25.8903 41.4373 25.6689 41.8796 25.6248 42.3559C25.604 42.6238 25.6413 42.8931 25.7341 43.1453C25.8269 43.3975 25.9731 43.6267 26.1627 43.8172C26.208 43.8643 26.2418 43.9212 26.2614 43.9836C26.2809 44.046 26.2857 44.1121 26.2754 44.1766C26.2651 44.2411 26.2399 44.3024 26.2018 44.3555C26.1637 44.4087 26.1138 44.4523 26.056 44.4828C25.0342 45.0359 24.0639 45.5598 23.465 46.3578C23.2025 46.7094 22.5088 47.627 22.0857 52.3625C21.8514 55.0273 21.8162 57.7859 22.0002 59.5625C22.3857 63.2539 23.1088 65.4852 23.1392 65.5777C23.2502 65.9146 23.4544 66.2132 23.7282 66.4386C24.002 66.6641 24.3342 66.8073 24.6861 66.8516V66.875C24.6861 67.3723 24.8837 67.8492 25.2353 68.2008C25.5869 68.5525 26.0638 68.75 26.5611 68.75H33.1236C33.6209 68.75 34.0978 68.5525 34.4494 68.2008C34.8011 67.8492 34.9986 67.3723 34.9986 66.875C36.0076 66.875 36.7096 66.6945 37.4537 66.5023C38.528 66.2129 39.6262 66.0203 40.7349 65.927C44.3103 65.5859 47.8658 65.4688 49.9998 65.4688C52.0904 65.4688 55.8029 65.5859 59.3842 65.927C60.4973 66.0205 61.5998 66.2139 62.6783 66.5047C63.3908 66.6875 64.067 66.8562 65.0033 66.8738C65.0033 67.3711 65.2008 67.848 65.5525 68.1997C65.9041 68.5513 66.381 68.7488 66.8783 68.7488H73.4408C73.9381 68.7488 74.415 68.5513 74.7666 68.1997C75.1183 67.848 75.3158 67.3711 75.3158 66.8738V66.8598C75.6686 66.8163 76.0017 66.6735 76.2764 66.448C76.5511 66.2225 76.7561 65.9235 76.8674 65.5859C76.8978 65.4934 77.6209 63.2621 78.0064 59.5707C78.1904 57.793 78.1576 55.0391 77.9209 52.3695ZM33.1635 42.1848C34.101 40.1926 35.1732 37.9379 37.0822 36.9875C39.8408 35.6141 45.5584 34.9953 49.9998 34.9953C54.4412 34.9953 60.1588 35.6094 62.9174 36.9875C64.8264 37.9379 65.8939 40.1937 66.8361 42.1848L66.9533 42.4391C67.0218 42.5838 67.0521 42.7437 67.0413 42.9035C67.0305 43.0633 66.9789 43.2177 66.8914 43.3519C66.804 43.4861 66.6837 43.5957 66.5419 43.6702C66.4001 43.7446 66.2415 43.7815 66.0814 43.7773C62.1873 43.6719 53.9842 43.3344 49.9998 43.3344C46.0154 43.3344 37.8123 43.6801 33.9123 43.7855C33.7522 43.7897 33.5937 43.7528 33.4519 43.6784C33.3101 43.6039 33.1897 43.4943 33.1023 43.3601C33.0148 43.2259 32.9633 43.0716 32.9524 42.9117C32.9416 42.7519 32.9719 42.592 33.0404 42.4473C33.0814 42.3605 33.1248 42.2727 33.1635 42.1848ZM34.5615 51.5164C32.5457 51.759 30.5169 51.8788 28.4865 51.875C27.2443 51.875 25.9635 51.5234 25.7256 50.4172C25.5627 49.673 25.5803 49.2547 25.6681 48.834C25.742 48.4766 25.8592 48.2164 26.4451 48.125C27.9685 47.8906 28.8205 48.1848 31.3142 48.9195C32.9678 49.4059 34.1607 50.0539 34.8404 50.5672C35.1814 50.8203 34.9998 51.4813 34.5615 51.5164ZM60.5045 61.1258C58.9623 61.3016 55.8779 61.2371 50.0349 61.2371C44.192 61.2371 41.1088 61.3016 39.5666 61.1258C37.9752 60.9488 35.9467 59.4441 37.3318 58.1035C38.2541 57.2199 40.4056 56.559 43.2709 56.1875C46.1361 55.816 47.349 55.625 50.0232 55.625C52.6974 55.625 53.7873 55.7422 56.7756 56.1887C59.7639 56.6352 62.0221 57.3043 62.7146 58.1047C63.9779 59.5391 62.0947 60.9395 60.5045 61.1328V61.1258ZM74.274 50.416C74.0396 51.527 72.7506 51.8738 71.5131 51.8738C69.4438 51.8743 67.3763 51.7546 65.3209 51.5152C64.9623 51.4812 64.7959 50.852 65.1592 50.566C65.8283 50.0398 67.0342 49.4047 68.6853 48.9184C71.1791 48.1836 72.617 47.8895 73.8521 48.1344C74.1533 48.1941 74.3127 48.5176 74.3314 48.7203C74.4141 49.2848 74.3946 49.8596 74.274 50.4172V50.416Z" fill="#333333"/>
<circle cx="50" cy="50" r="49.5" stroke="#ED5F00"/>
</svg>
