<svg width="101" height="100" viewBox="0 0 101 100" fill="none" xmlns="http://www.w3.org/2000/svg">
<g clip-path="url(#clip0_97_445)">
<path d="M32.8328 30.7072C34.1828 31.8041 35.6992 32.8095 37.307 33.665L37.4594 33.74C36.0227 37.8814 35.1578 42.6556 35.0758 47.622V47.6595H25.0867C25.4235 41.2344 28.189 35.1772 32.8234 30.7142L32.8305 30.7072H32.8328Z" fill="#333333"/>
<path d="M49.1594 36.9134V47.6572H37.75C37.8531 43.0611 38.6524 38.6877 40.0445 34.5861L39.9531 34.8931C42.8619 36.0872 45.955 36.7699 49.0961 36.9111L49.1594 36.9134Z" fill="#333333"/>
<path d="M51.8406 36.9158V47.6595H63.25V47.6103C63.1469 43.0662 62.3486 38.6953 61.0492 34.9023C58.1165 36.0904 55.0026 36.7715 51.8406 36.9158Z" fill="#333333"/>
<path d="M65.9242 47.6595H75.9109L75.9086 47.6572L75.9063 47.5916C75.5562 41.1865 72.7904 35.1525 68.1665 30.7065C66.728 31.8591 65.1828 32.8721 63.552 33.7317C65.0537 38.2241 65.854 42.9219 65.9242 47.6595Z" fill="#333333"/>
<path d="M51.8406 34.2345V23.6994C55.082 24.4142 58.0047 27.6533 60.0813 32.4017C57.6578 33.4095 54.8477 34.0681 51.9086 34.2322L51.8406 34.2345Z" fill="#333333"/>
<path d="M49.1547 23.7064V34.2345C46.2637 34.087 43.4193 33.4449 40.7453 32.3361L40.9141 32.397C43 27.6626 45.918 24.4119 49.1594 23.697L49.1547 23.7064Z" fill="#333333"/>
<path d="M38.4484 31.2345C37.178 30.551 35.9674 29.7615 34.8297 28.8744L34.8859 28.9166C37.1105 27.1732 39.6126 25.8167 42.2875 24.9041L42.4656 24.8502C40.826 26.7051 39.49 28.8076 38.507 31.0798L38.4484 31.2322V31.2345Z" fill="#333333"/>
<path d="M66.1117 28.9236C65.3985 28.3676 64.6572 27.8509 63.8912 27.3754C63.7531 27.2897 63.6143 27.2054 63.4746 27.1223C61.918 26.1969 60.2643 25.439 58.5408 24.8632C60.2097 26.7609 61.5632 28.9144 62.5492 31.2416L62.6805 31.1759C63.9086 30.508 65.0734 29.7392 66.1117 28.9236Z" fill="#333333"/>
<path d="M68.1672 67.2931C66.774 66.1661 65.2757 65.1757 63.693 64.3353L63.5406 64.2603C64.9774 60.1189 65.8422 55.3447 65.9242 50.3783V50.3408H75.9109C75.5742 56.7659 72.8086 62.8231 68.1742 67.2861L68.1672 67.2931Z" fill="#333333"/>
<path d="M51.8406 61.0845V50.3408H63.25C63.1595 54.7898 62.388 59.1988 60.9625 63.4142L61.0539 63.1072C58.144 61.9112 55.0492 61.2277 51.9063 61.0869L51.843 61.0845H51.8406Z" fill="#333333"/>
<path d="M51.8406 63.7658C54.8477 63.9275 57.6578 64.5884 60.25 65.6642L60.0813 65.6033C58.0047 70.3377 55.082 73.5908 51.8406 74.3056V63.7658Z" fill="#333333"/>
<path d="M62.5516 66.7634C63.9109 67.5017 65.0758 68.2681 66.1703 69.1236L66.1141 69.0814C63.8895 70.8248 61.3874 72.1812 58.7125 73.0939L58.5344 73.1478C60.174 71.2937 61.5101 69.192 62.493 66.9205L62.5516 66.7681V66.7634Z" fill="#333333"/>
<path d="M49.1594 63.7658V74.2986C45.918 73.5837 42.9953 70.3447 40.9188 65.5962C43.3422 64.5884 46.1524 63.9322 49.0914 63.7681L49.1594 63.7658Z" fill="#333333"/>
<path d="M49.1594 61.0822V50.3384H37.75V50.3876C37.8531 54.9318 38.6514 59.305 39.9508 63.0956C42.8835 61.9075 45.9974 61.2265 49.1594 61.0822Z" fill="#333333"/>
<path d="M35.0758 50.3408H25.0891L25.0914 50.3431L25.0938 50.4087C25.4438 56.8138 28.2096 62.8478 32.8334 67.2938C34.2213 66.1798 35.7155 65.19 37.4481 64.2687C35.9464 59.7762 35.146 55.0784 35.0758 50.3408Z" fill="#333333"/>
<path d="M34.8438 69.0416C37.1326 70.8317 39.7115 72.2161 42.4683 73.1346C40.7936 71.2453 39.4403 69.0937 38.4625 66.7658L38.3313 66.8314C37.1031 67.4994 35.9383 68.2681 34.9 69.0837L34.8438 69.0416Z" fill="#333333"/>
<path fill-rule="evenodd" clip-rule="evenodd" d="M31.9777 27.8524C31.9705 27.8587 31.9634 27.865 31.9563 27.8712L31.9867 27.8455L31.9777 27.8524ZM61.232 34.8275C61.1712 34.8527 61.1102 34.8776 61.0492 34.9023L61.0469 34.8955L61.232 34.8275ZM58.5408 24.8632L58.5297 24.8595V24.8525L58.5086 24.8267L58.5408 24.8632ZM66.1117 28.9236L66.1319 28.9394C66.1317 28.9392 66.1321 28.9395 66.1319 28.9394C66.1253 28.9342 66.1183 28.9287 66.1117 28.9236C66.1116 28.9235 66.1119 28.9237 66.1117 28.9236ZM39.768 63.1705C39.8288 63.1453 39.8898 63.1204 39.9508 63.0956L39.9531 63.1025L39.768 63.1705ZM42.4683 73.1346L42.4797 73.1384V73.1478L42.4683 73.1346ZM63.4445 33.4142C63.4807 33.5199 63.5165 33.6257 63.552 33.7317L63.5406 33.7376L63.4445 33.4142ZM68.2211 30.6627L68.1665 30.7065L68.1649 30.7048L68.2211 30.6627ZM37.5555 64.5861C37.5193 64.4804 37.4835 64.3746 37.4481 64.2687L37.4594 64.2626L37.5555 64.5861ZM32.7789 67.3377L32.8334 67.2938L32.8352 67.2955L32.7789 67.3377Z" fill="#333333"/>
<circle cx="50.5" cy="49" r="29.125" stroke="#333333" stroke-width="2"/>
</g>
<circle cx="50.5" cy="50" r="49.5" stroke="#ED5F00"/>
<defs>
<clipPath id="clip0_97_445">
<rect width="60" height="60" fill="white" transform="translate(20.5 19)"/>
</clipPath>
</defs>
</svg>
