<svg width="101" height="100" viewBox="0 0 101 100" fill="none" xmlns="http://www.w3.org/2000/svg">
<g clip-path="url(#clip0_97_455)">
<path d="M77.4 43.3332H74.1667V34.9999C74.1667 34.5579 73.9911 34.134 73.6785 33.8214C73.366 33.5088 72.942 33.3332 72.5 33.3332H32.5C32.058 33.3332 31.634 33.1576 31.3215 32.8451C31.0089 32.5325 30.8333 32.1086 30.8333 31.6666C30.8333 31.2245 31.0089 30.8006 31.3215 30.4881C31.634 30.1755 32.058 29.9999 32.5 29.9999H71.8333C72.2754 29.9999 72.6993 29.8243 73.0118 29.5117C73.3244 29.1992 73.5 28.7753 73.5 28.3332C73.5 27.8912 73.3244 27.4673 73.0118 27.1547C72.6993 26.8422 72.2754 26.6666 71.8333 26.6666H32.5C31.8565 26.6533 31.2167 26.7669 30.6171 27.001C30.0175 27.2351 29.4699 27.585 29.0056 28.0307C28.5413 28.4765 28.1693 29.0093 27.911 29.5989C27.6527 30.1884 27.513 30.8231 27.5 31.4666V66.4666C27.5022 67.3719 27.6829 68.2679 28.0319 69.1033C28.3809 69.9387 28.8913 70.697 29.5338 71.3349C30.1762 71.9727 30.9383 72.4775 31.7761 72.8205C32.614 73.1634 33.5113 73.3376 34.4167 73.3332H72.5C72.942 73.3332 73.366 73.1576 73.6785 72.8451C73.9911 72.5325 74.1667 72.1086 74.1667 71.6666V63.3332H77.4C77.6104 63.3492 77.8218 63.322 78.0213 63.2533C78.2207 63.1847 78.4041 63.076 78.5602 62.934C78.7162 62.792 78.8416 62.6197 78.9287 62.4276C79.0158 62.2354 79.0627 62.0275 79.0667 61.8166V45.1499C79.0722 44.6919 78.9028 44.249 78.5932 43.9114C78.2835 43.5739 77.8568 43.3671 77.4 43.3332ZM75.8333 59.9999H61.5333C59.8253 59.9391 58.2112 59.2028 57.0456 57.9528C55.88 56.7029 55.2582 55.0414 55.3167 53.3332C55.2582 51.6251 55.88 49.9636 57.0456 48.7136C58.2112 47.4636 59.8253 46.7274 61.5333 46.6666H75.8333V59.9999Z" fill="#333333"/>
<path d="M62.5669 55.7C63.9476 55.7 65.0669 54.5807 65.0669 53.2C65.0669 51.8192 63.9476 50.7 62.5669 50.7C61.1862 50.7 60.0669 51.8192 60.0669 53.2C60.0669 54.5807 61.1862 55.7 62.5669 55.7Z" fill="#333333"/>
</g>
<circle cx="50.5" cy="50" r="49.5" stroke="#ED5F00"/>
<defs>
<clipPath id="clip0_97_455">
<rect width="60" height="60" fill="white" transform="translate(22.5 20)"/>
</clipPath>
</defs>
</svg>
