<svg width="100" height="100" viewBox="0 0 100 100" fill="none" xmlns="http://www.w3.org/2000/svg">
<circle cx="50" cy="50" r="49.5" stroke="#ED5F00"/>
<path d="M52.5 25.125V30.175C62.375 31.4 70 39.8 70 50C70 58.025 65.2 65 58.2 68.2L52.5 62.5V75H65L61.95 71.95C69.775 67.675 75 59.4 75 50C75 37.05 65.125 26.375 52.5 25.125ZM47.5 25C42.625 25.5 38 27.4 34.2 30.525L37.75 34.075C40.5877 31.8875 43.9496 30.4824 47.5 30V25ZM30.5 34.2C27.4 38 25.5 42.625 25 47.5H30C30.475 43.95 31.875 40.575 34.075 37.75L30.5 34.2ZM35 40V45H42.5V47.5H40C37.25 47.5 35 49.75 35 52.5V60H47.5V55H40V52.5H42.5C45.275 52.5 47.5 50.275 47.5 47.5V45C47.5 43.6739 46.9732 42.4021 46.0355 41.4645C45.0979 40.5268 43.8261 40 42.5 40H35ZM50 40V52.5H57.5V60H62.5V52.5H65V47.5H62.5V40H57.5V47.5H55V40H50ZM25 52.5C25.5 57.375 27.425 62 30.55 65.8L34.1 62.25C31.905 59.414 30.4914 56.0524 30 52.5H25ZM37.775 65.925L34.2 69.475C37.9984 72.5763 42.6221 74.4971 47.5 75V70C43.9542 69.5286 40.5977 68.1221 37.775 65.925Z" fill="#333333"/>
</svg>
