<svg width="100" height="100" viewBox="0 0 100 100" fill="none" xmlns="http://www.w3.org/2000/svg">
<path d="M46.0787 24.3039C48.1829 21.9945 51.8171 21.9945 53.9213 24.3039C55.3171 25.8359 57.4773 26.4147 59.4521 25.7859C62.4291 24.8379 65.5765 26.6551 66.244 29.7072C66.6868 31.7318 68.2682 33.3132 70.2928 33.756C73.3449 34.4235 75.1621 37.5709 74.2141 40.5479C73.5853 42.5227 74.1641 44.6829 75.6961 46.0787C78.0055 48.1829 78.0055 51.8171 75.6961 53.9213C74.1641 55.3171 73.5853 57.4773 74.2141 59.4521C75.1621 62.4291 73.3449 65.5765 70.2928 66.244C68.2682 66.6868 66.6868 68.2682 66.244 70.2928C65.5765 73.3449 62.4291 75.1621 59.4521 74.2141C57.4773 73.5853 55.3171 74.1641 53.9213 75.6961C51.8171 78.0055 48.1829 78.0055 46.0787 75.6961C44.6829 74.1641 42.5227 73.5853 40.5479 74.2141C37.5709 75.1621 34.4235 73.3449 33.756 70.2928C33.3132 68.2682 31.7318 66.6868 29.7072 66.244C26.6551 65.5765 24.8379 62.4291 25.7859 59.4521C26.4147 57.4773 25.8359 55.3171 24.3039 53.9213C21.9945 51.8171 21.9945 48.1829 24.3039 46.0787C25.8359 44.6829 26.4147 42.5227 25.7859 40.5479C24.8379 37.5709 26.6551 34.4235 29.7072 33.756C31.7318 33.3132 33.3132 31.7318 33.756 29.7072C34.4235 26.6551 37.5709 24.8379 40.5479 25.7859C42.5227 26.4147 44.6829 25.8359 46.0787 24.3039Z" fill="#333333"/>
<g clip-path="url(#clip0_97_443)">
<path d="M47.7373 59.9942C54.5537 59.9942 54.6062 59.7233 55.4503 59.1142C55.898 58.7914 56.7429 58.5679 59.8288 58.3753C60.0526 58.3613 60.2656 58.279 60.4085 58.1129C60.4741 58.0364 62.0161 55.8812 62.0161 52.4294C62.0161 49.0279 60.9125 47.4776 60.8653 47.4057C60.7979 47.3023 60.7043 47.2171 60.5931 47.158C60.4819 47.0989 60.3568 47.0679 60.2296 47.0679C57.6958 47.0679 54.1831 43.9683 51.8218 38.5575C51.4134 37.6217 51.329 37.0061 49.829 37.0061C48.9759 37.0061 48.0196 37.5915 47.5475 38.3426C46.5789 39.8772 47.0709 43.173 47.5258 44.9343C45.9789 44.9225 43.1788 44.9023 41.8464 44.9023C39.9932 44.9023 38.7666 45.9614 38.7294 47.5096C38.717 48.0206 38.7872 48.6732 38.9413 49.011C38.5333 49.401 38.0072 49.9889 37.9843 50.7461C37.9558 51.7236 38.6237 52.4679 39.0501 52.8948C38.9522 53.1791 38.7565 53.556 38.7756 54.0067C38.8225 55.115 39.7153 55.8291 40.2715 56.2018C40.2253 56.5051 40.1893 57.0772 40.291 57.5196C40.6922 59.2852 43.3941 59.9942 47.7373 59.9942ZM59.4309 56.9177C56.7429 57.1308 55.306 57.4194 54.5481 57.966C53.9616 58.3893 54.052 58.5572 47.7373 58.5572C45.8113 58.5572 42.0445 58.4802 41.7557 57.2131C41.641 56.7064 42.1986 56.2083 42.2005 56.2043C42.3527 55.8443 42.1832 55.4216 41.8119 55.266C41.806 55.2631 40.3086 54.7492 40.2744 53.9471C40.2519 53.4343 40.6194 53.1263 40.6277 53.1133C40.8463 52.7885 40.7664 52.3429 40.4349 52.1215C40.4312 52.1186 39.4611 51.5551 39.4847 50.7868C39.5031 50.1765 40.342 49.7471 40.3675 49.7327C40.555 49.6299 40.6915 49.452 40.7342 49.2486C40.7762 49.0456 40.729 48.8325 40.5973 48.6675C40.5973 48.6675 40.216 48.0868 40.2298 47.542C40.2572 46.3758 41.5659 46.3391 41.8468 46.3391C43.7387 46.3391 48.5975 46.3575 48.5975 46.3575C48.8597 46.3585 49.0865 46.24 49.2275 46.0391C49.3682 45.8381 49.3787 45.5888 49.2962 45.3602C48.5634 43.338 48.1543 40.1654 48.8338 39.0816C49.0341 38.7621 49.0798 38.443 49.8298 38.443C49.9337 38.443 50.1812 38.5217 50.4392 39.111C52.9453 44.8574 56.6885 48.1813 59.7545 48.481C60.0189 49.0589 60.5162 50.2563 60.5162 52.4291C60.5162 54.6468 59.7831 56.3624 59.4309 56.9177Z" fill="#333333"/>
<path d="M59.4309 56.9177C56.7429 57.1308 55.306 57.4194 54.5481 57.966C53.9616 58.3893 54.052 58.5572 47.7373 58.5572C45.8113 58.5572 42.0445 58.4802 41.7557 57.2131C41.641 56.7064 42.1986 56.2083 42.2005 56.2043C42.3527 55.8443 42.1832 55.4216 41.8119 55.266C41.806 55.2631 40.3086 54.7492 40.2744 53.9471C40.2519 53.4343 40.6194 53.1263 40.6277 53.1133C40.8463 52.7885 40.7664 52.3429 40.4349 52.1215C40.4312 52.1186 39.4611 51.5551 39.4847 50.7868C39.5031 50.1765 40.342 49.7471 40.3675 49.7327C40.555 49.6299 40.6915 49.452 40.7342 49.2486C40.7762 49.0456 40.729 48.8325 40.5973 48.6675C40.5973 48.6675 40.216 48.0868 40.2298 47.542C40.2572 46.3758 41.5659 46.3391 41.8468 46.3391C43.7387 46.3391 48.5975 46.3575 48.5975 46.3575C48.8597 46.3585 49.0865 46.24 49.2275 46.0391C49.3682 45.8381 49.3787 45.5888 49.2962 45.3602C48.5634 43.338 48.1543 40.1654 48.8338 39.0816C49.0341 38.7621 49.0798 38.443 49.8298 38.443C49.9337 38.443 50.1812 38.5217 50.4392 39.111C52.9453 44.8574 56.6885 48.1813 59.7545 48.481C60.0189 49.0589 60.5162 50.2563 60.5162 52.4291C60.5162 54.6468 59.7831 56.3624 59.4309 56.9177Z" fill="white"/>
</g>
<circle cx="50" cy="50" r="49.5" stroke="#ED5F00"/>
<defs>
<clipPath id="clip0_97_443">
<rect width="24" height="23" fill="white" transform="matrix(-1 0 0 1 62 37)"/>
</clipPath>
</defs>
</svg>
