<svg width="24" height="24" viewBox="0 0 24 24" fill="none" xmlns="http://www.w3.org/2000/svg">
<g clip-path="url(#clip0_220_1090)">
<path d="M1.19961 9.975V10.35H1.42461V10.725H1.64961V10.35H1.87461V9.975H2.09961V9.6H2.32461V9.225H2.54961V8.85H2.77461V8.475H2.47461V8.1H2.28711V7.725H1.61211V8.1H2.06211V8.475H1.83711V8.85H1.61211V9.225H1.38711V8.85H1.19961C1.12461 9.15 1.04961 9.4875 0.974609 9.7875V9.9375H1.19961V9.975ZM3.78711 4.3125L3.67461 4.425H3.78711V4.3125Z" fill="#FEF8EA"/>
<path d="M5.55 2.96251H5.325V3.33751H5.1V3.71251H4.875V4.08751H4.65V4.46251H4.425V4.08751H4.2V3.90001L3.975 4.12501V4.46251H4.2V4.83751H4.425V5.21251H4.2V5.58751H3.975V5.96251H3.75V5.58751H3.5625V5.21251H3.375V4.83751C3.3 4.91251 3.225 5.02501 3.15 5.10001V5.21251H3.075C3 5.25001 2.9625 5.28751 2.925 5.36251V5.55001H2.775C2.7375 5.58751 2.7375 5.62501 2.7 5.66251V5.88751H2.55C2.475 6.00001 2.4 6.15001 2.325 6.26251H2.5125V6.63751H2.7375V7.01251H2.9625V7.38751H3.1875V7.76251H3.375V7.38751H3.6V7.01251H3.825V6.63751H4.05V6.26251H4.275V5.88751H4.5V5.51251H4.725V5.88751H4.875V6.26251H5.1V6.63751H5.325V7.01251H5.55V7.38751H5.775V6.63751H5.55V6.26251H5.775V5.17501H5.55V5.55001H5.325V5.92501H5.1V5.55001H4.875V5.17501H4.65V4.80001H4.875V4.42501H5.1V4.05001H5.325V4.42501H5.55V4.80001H5.775V3.67501H5.55V3.30001H5.775V2.66251C5.7 2.70001 5.625 2.77501 5.55 2.81251V2.96251ZM3.375 6.63751H3.15V5.88751H3.375V6.63751ZM0.975 13.275V12.9H1.2V12.525H1.425V12.15H1.65V11.775H1.3875V11.4H1.2V11.025H0.975V10.65H0.825C0.7875 11.1375 0.75 11.55 0.75 12C0.75 12.45 0.7875 12.8625 0.825 13.275H0.975ZM5.55 11.0625H5.325V11.4375H5.1V11.8125H4.875V12.1875H5.1V12.5625H5.325V12.9375H5.55V13.275H5.7375V10.725H5.55V11.0625Z" fill="#FEF8EA"/>
<path d="M3.56289 4.53751C3.48789 4.61251 3.41289 4.72501 3.33789 4.80001H3.56289V4.53751ZM3.67539 19.575L3.78789 19.6875V19.575H3.67539ZM3.37539 19.2C3.45039 19.275 3.52539 19.3875 3.60039 19.4625V19.2H3.37539Z" fill="#FEF8EA"/>
<path d="M5.54961 20.6625V20.2875H5.77461V19.1625H5.54961V19.5375H5.32461V19.9125H5.09961V19.5375H4.87461V19.1625H4.64961V18.7875H4.87461V18.4125H5.09961V18.0375H5.32461V18.4125H5.54961V18.7875H5.77461V17.6625H5.54961V17.2875H5.77461V16.5375H5.54961V16.9125H5.32461V17.2875H5.09961V17.6625H4.87461V18.0375H4.64961V18.4125H4.42461V18.0375H4.19961V17.6625H3.97461V17.2875H3.74961V16.9125H3.56211V16.5375H3.37461V16.1625H3.14961V16.5375H2.92461V16.9125H2.69961V17.2875H2.47461V17.6625H2.32461C2.39961 17.775 2.47461 17.925 2.54961 18.0375H2.69961V18.2625C2.73711 18.3 2.73711 18.3375 2.77461 18.375H2.92461V18.5625C2.96211 18.7125 2.99961 18.75 3.07461 18.825H3.14961V18.9375C3.22461 19.0125 3.29961 19.125 3.37461 19.2V18.825H3.59961V18.45H3.82461V18.075H4.04961V18.45H4.27461V18.825H4.49961V19.2H4.27461V19.575H4.04961V19.9125L4.27461 20.1375V19.95H4.49961V19.575H4.72461V19.95H4.87461V20.325H5.09961V20.7H5.32461V21.075H5.54961V21.225C5.62461 21.2625 5.69961 21.3375 5.77461 21.375V20.7L5.54961 20.6625ZM3.37461 18.075H3.14961V17.325H3.37461V18.075ZM5.54961 14.025H5.32461V13.65H5.09961V13.275H4.87461V13.65H4.64961V14.025H4.46211V14.4H4.23711V14.775H4.01211V15.15H3.78711V15.4875H4.01211V15.8625H4.23711V16.2375H4.87461V15.8625H4.46211V15.4875H4.64961V15.15H4.87461V14.775H5.09961V15.15H5.32461V15.4875H5.54961V15.8625H5.73711V15.15H5.54961V14.775H5.73711V14.4H5.54961V14.025ZM5.54961 8.51251H5.32461V8.85001H5.09961V9.22501H4.87461V8.85001H4.64961V8.51251H4.46211V8.13751H4.87461V7.76251H4.23711V8.13751H4.01211V8.51251H3.78711V8.85001H4.01211V9.22501H4.23711V9.60001H4.46211V9.97501H4.64961V10.35H4.87461V10.725H5.09961V10.35H5.32461V9.97501H5.54961V9.60001H5.73711V9.22501H5.54961V8.85001H5.73711V8.13751H5.54961V8.51251ZM1.38711 14.775H1.61211V15.15H1.83711V15.525H2.06211V15.9H1.61211V16.275H2.24961V15.9H2.47461V15.525H2.69961V15.15H2.47461V14.775H2.28711V14.4H2.06211V14.025H1.83711V13.65H1.61211V13.275H1.38711V13.65H1.19961V14.025H0.974609V14.175C1.04961 14.5125 1.12461 14.8125 1.19961 15.1125H1.38711V14.775ZM3.78711 9.97501H3.56211V9.60001H3.37461V9.22501H3.14961V9.60001H2.92461V9.97501H2.69961V10.35H2.47461V10.725H2.28711V11.1H2.06211V12.975H2.28711V13.35H2.51211V13.725H2.73711V14.1H2.96211V14.475H3.18711V14.85H3.37461V14.475H3.59961V14.1H3.82461V13.725H4.04961V13.35H4.27461V12.975H4.49961V11.1H4.27461V10.725H4.04961V10.35H3.82461L3.78711 9.97501ZM2.47461 11.9625V12.1875H2.28711V11.8125H2.51211V11.9625H2.47461ZM4.01211 12.0375V11.8125H4.23711V12.1875H4.01211V12.0375ZM3.14961 9.97501H3.37461V10.35H3.14961V9.97501ZM3.37461 14.025H3.14961V13.65H3.37461V14.025ZM3.78711 11.4375H3.56211V11.8125H3.37461V12.1875H3.59961V12.5625H3.82461V13.3125H3.56211V12.9375H3.37461V12.5625H3.14961V12.9375H2.92461V13.3125H2.69961V12.5625H2.92461V12.1875H3.14961V11.8125H2.92461V11.4375H2.69961V10.6875H2.92461V11.0625H3.14961V11.4375H3.37461V11.0625H3.59961V10.6875H3.82461L3.78711 11.4375Z" fill="#FEF8EA"/>
<path d="M2.69961 5.6625C2.66211 5.7375 2.58711 5.8125 2.54961 5.8875H2.69961V5.6625ZM2.92461 5.55V5.3625C2.88711 5.4375 2.84961 5.475 2.77461 5.55H2.92461ZM3.14961 5.175V5.0625C3.11211 5.1 3.11211 5.1375 3.07461 5.175H3.14961ZM2.28711 11.9625V12.1875H2.47461V11.8125H2.28711V11.9625ZM5.54961 6.3H5.77461V6.675H5.54961V6.3ZM3.56211 5.175V5.55H3.78711V5.925H4.01211V5.55H4.23711V5.175H4.46211V4.8H4.23711V4.425H4.01211V4.0875L3.78711 4.3125V4.425H3.67461L3.56211 4.5375V4.8H3.37461V5.175H3.56211ZM5.54961 3.3375H5.77461V3.7125H5.54961V3.3375ZM5.54961 4.425H5.32461V4.0875H5.09961V4.425H4.87461V4.8H4.64961V5.175H4.87461V5.55H5.09961V5.925H5.32461V5.55H5.54961V5.175H5.73711V4.8H5.54961V4.425ZM4.46211 4.0875V4.4625H4.68711V4.0875H4.87461V3.7125H5.09961V3.3375H5.32461V2.9625H5.54961V2.8125C5.13711 3.1125 4.72461 3.4125 4.38711 3.75C4.34961 3.7875 4.31211 3.825 4.23711 3.8625V4.05H4.46211V4.0875ZM3.22461 5.925H3.14961V6.6375H3.37461V5.925H3.26211H3.22461ZM3.56211 11.0625H3.37461V11.4375H3.14961V11.0625H2.92461V10.725H2.69961V11.4375H2.92461V11.8125H3.14961V12.1875H2.92461V12.5625H2.69961V13.275H2.92461V12.9375H3.14961V12.5625H3.37461V12.9375H3.56211V13.275H3.78711V12.5625H3.56211V12.1875H3.37461V11.8125H3.56211V11.4375H3.78711V10.725H3.56211V11.0625ZM5.54961 8.85H5.77461V9.225H5.54961V8.85Z" fill="#C8313E"/>
<path d="M5.54922 7.01251H5.32422V6.63751H5.09922V6.26251H4.87422V5.88751H4.64922V5.51251H4.42422V5.88751H4.19922V6.26251H3.97422V6.63751H3.74922V7.01251H3.56172V7.38751H3.37422V7.76251H3.14922V7.38751H2.92422V7.01251H2.69922V6.63751H2.47422V6.26251H2.32422C2.09922 6.63751 1.87422 7.05001 1.68672 7.46251C1.49922 7.91251 1.34922 8.36251 1.19922 8.81251H1.38672V9.18751H1.61172V8.81251H1.83672V8.43751H2.06172V8.06251H1.61172V7.68751H2.24922V8.06251H2.47422V8.43751H2.69922V8.81251H2.47422V9.18751H2.28672V9.56251H2.06172V9.93751H1.83672V10.3125H1.61172V10.6875H1.38672V10.3125H1.19922V9.93751H0.974219V9.78751C0.899219 10.0875 0.861719 10.3875 0.824219 10.6875H0.974219V11.0625H1.19922V11.4375H1.42422V11.8125H1.64922V12.1875H1.38672V12.5625H1.19922V12.9375H0.974219V13.3125H0.824219C0.861719 13.6125 0.899219 13.9125 0.974219 14.2125V14.0625H1.19922V13.6875H1.42422V13.3125H1.64922V13.6875H1.87422V14.0625H2.09922V14.4375H2.32422V14.8125H2.54922V15.1875H2.77422V15.5625H2.47422V15.9375H2.28672V16.3125H1.61172V15.9375H2.06172V15.5625H1.83672V15.1875H1.61172V14.8125H1.38672V15.1875H1.19922C1.34922 15.6 1.49922 16.05 1.68672 16.5C1.87422 16.9125 2.09922 17.325 2.32422 17.7H2.51172V17.325H2.73672V16.95H2.96172V16.575H3.18672V16.2H3.37422V16.575H3.59922V16.95H3.82422V17.325H4.04922V17.7H4.27422V18.075H4.49922V18.45H4.72422V18.075H4.87422V17.7H5.09922V17.325H5.32422V16.95H5.54922V16.575H5.77422V15.825H5.54922V15.45H5.32422V15.075H5.09922V14.7H4.87422V15.075H4.64922V15.45H4.42422V15.825H4.87422V16.2H4.23672V15.825H4.01172V15.45H3.78672V15.075H4.01172V14.7H4.23672V14.325H4.46172V13.95H4.68672V13.575H4.87422V13.2H5.09922V13.575H5.32422V13.95H5.54922V14.325H5.77422V13.2H5.54922V12.825H5.32422V12.45H5.09922V12.075H4.87422V11.7H5.09922V11.325H5.32422V10.95H5.54922V10.575H5.77422V9.45001H5.54922V9.82501H5.32422V10.2H5.09922V10.575H4.87422V10.2H4.64922V9.82501H4.42422V9.45001H4.19922V9.07501H3.97422V8.70001H3.74922V8.32501H3.97422V7.95001H4.19922V7.57501H4.87422V7.95001H4.42422V8.32501H4.64922V8.70001H4.87422V9.07501H5.09922V8.70001H5.32422V8.32501H5.54922V7.95001H5.77422V7.20001H5.54922V7.01251ZM4.01172 10.35V10.725H4.23672V11.1H4.46172V12.975H4.23672V13.35H4.01172V13.725H3.78672V14.1H3.56172V14.475H3.37422V14.85H3.14922V14.475H2.92422V14.1H2.69922V13.725H2.47422V13.35H2.28672V12.975H2.06172V11.1H2.28672V10.725H2.51172V10.35H2.73672V9.97501H2.96172V9.60001H3.18672V9.22501H3.37422V9.60001H3.59922V9.97501H3.82422V10.35H4.01172Z" fill="#C8313E"/>
<path d="M3.26133 10.35H3.37383V9.97501H3.14883V10.35H3.22383H3.26133ZM2.69883 18.075H2.54883C2.58633 18.15 2.66133 18.225 2.69883 18.3V18.075ZM2.92383 18.45H2.77383C2.81133 18.525 2.84883 18.5625 2.92383 18.6375V18.45ZM3.14883 18.825H3.07383C3.11133 18.8625 3.11133 18.9 3.14883 18.9375V18.825ZM5.54883 17.3625H5.77383V17.7375H5.54883V17.3625ZM5.54883 18.45H5.32383V18.075H5.09883V18.45H4.87383V18.825H4.64883V19.2H4.87383V19.575H5.09883V19.9125H5.32383V19.575H5.54883V19.2H5.73633V18.825H5.54883V18.45ZM3.56133 19.2V19.4625L3.67383 19.575H3.78633V19.6875L4.01133 19.9125V19.575H4.23633V19.2H4.46133V18.825H4.23633V18.45H4.01133V18.075H3.78633V18.45H3.56133V18.825H3.37383V19.2H3.56133ZM5.54883 20.2875H5.77383V20.6625H5.54883V20.2875ZM4.34883 20.25C4.72383 20.5875 5.09883 20.925 5.51133 21.1875V21.0375H5.28633V20.6625H5.06133V20.2875H4.87383V19.9125H4.64883V19.5375H4.42383V19.9125H4.19883V20.1L4.34883 20.25ZM3.22383 17.3625H3.14883V18.075H3.37383V17.3625H3.26133H3.22383ZM5.54883 14.775H5.77383V15.15H5.54883V14.775ZM4.23633 12.0375V11.8125H4.01133V12.1875H4.23633V12.0375ZM3.22383 13.65H3.14883V14.025H3.37383V13.65H3.26133H3.22383Z" fill="#C8313E"/>
<path d="M5.73828 16.5V21.3375C7.53828 22.5375 9.67578 23.25 12.0008 23.25C14.9633 23.25 17.6258 22.125 19.6508 20.25C20.7758 19.2 21.7133 17.925 22.3133 16.5H5.73828Z" fill="#83BF4F"/>
<path d="M22.3133 16.5C22.9133 15.1125 23.2508 13.6125 23.2508 12C23.2508 10.3875 22.9133 8.8875 22.3133 7.5C21.6758 6.075 20.7758 4.8 19.6508 3.75C17.6258 1.875 14.9633 0.75 12.0008 0.75C9.67578 0.75 7.53828 1.4625 5.73828 2.6625V16.5H22.3133Z" fill="#C94747"/>
</g>
<defs>
<clipPath id="clip0_220_1090">
<rect width="24" height="24" fill="white"/>
</clipPath>
</defs>
</svg>
