<svg width="16" height="16" viewBox="0 0 16 16" fill="none" xmlns="http://www.w3.org/2000/svg">
<rect width="16" height="16" rx="2" fill="#ED5F00"/>
<path d="M6.75027 12C6.65527 12 6.5662 11.9831 6.48308 11.9493C6.39995 11.916 6.32277 11.8591 6.25151 11.7785L3.18775 8.31544C3.05712 8.16779 2.99466 7.97638 3.00036 7.74121C3.00653 7.50658 3.07493 7.31544 3.20556 7.16779C3.33618 7.02014 3.50244 6.94631 3.70431 6.94631C3.90619 6.94631 4.07244 7.02014 4.20306 7.16779L6.75027 10.047L11.992 4.22147C12.1226 4.07382 12.2919 3.99999 12.5 3.99999C12.7076 3.99999 12.8767 4.07382 13.0073 4.22147C13.1379 4.36912 13.2032 4.56026 13.2032 4.79489C13.2032 5.03006 13.1379 5.22147 13.0073 5.36912L7.24902 11.7785C7.17777 11.8591 7.10058 11.916 7.01746 11.9493C6.93433 11.9831 6.84527 12 6.75027 12Z" fill="white"/>
</svg>
