<svg width="20" height="18" viewBox="0 0 20 18" fill="none" xmlns="http://www.w3.org/2000/svg">
<path d="M19.1431 2.85714H6.57171M4.28599 2.85714H0.857422M19.1431 14.2857H6.57171M4.28599 14.2857H0.857422M13.4289 8.57143H0.857422M19.1431 8.57143H15.7146M5.42885 0.571426C5.73196 0.571426 6.02265 0.691834 6.23697 0.906162C6.4513 1.12049 6.57171 1.41118 6.57171 1.71428V4C6.57171 4.3031 6.4513 4.59379 6.23697 4.80812C6.02265 5.02245 5.73196 5.14286 5.42885 5.14286C5.12575 5.14286 4.83506 5.02245 4.62073 4.80812C4.4064 4.59379 4.28599 4.3031 4.28599 4V1.71428C4.28599 1.41118 4.4064 1.12049 4.62073 0.906162C4.83506 0.691834 5.12575 0.571426 5.42885 0.571426V0.571426ZM5.42885 12C5.73196 12 6.02265 12.1204 6.23697 12.3347C6.4513 12.5491 6.57171 12.8398 6.57171 13.1429V15.4286C6.57171 15.7317 6.4513 16.0224 6.23697 16.2367C6.02265 16.451 5.73196 16.5714 5.42885 16.5714C5.12575 16.5714 4.83506 16.451 4.62073 16.2367C4.4064 16.0224 4.28599 15.7317 4.28599 15.4286V13.1429C4.28599 12.8398 4.4064 12.5491 4.62073 12.3347C4.83506 12.1204 5.12575 12 5.42885 12ZM14.5717 6.28571C14.8748 6.28571 15.1655 6.40612 15.3798 6.62045C15.5942 6.83477 15.7146 7.12546 15.7146 7.42857V9.71428C15.7146 10.0174 15.5942 10.3081 15.3798 10.5224C15.1655 10.7367 14.8748 10.8571 14.5717 10.8571C14.2686 10.8571 13.9779 10.7367 13.7636 10.5224C13.5493 10.3081 13.4289 10.0174 13.4289 9.71428V7.42857C13.4289 7.12546 13.5493 6.83477 13.7636 6.62045C13.9779 6.40612 14.2686 6.28571 14.5717 6.28571V6.28571Z" stroke="#FF5F00" stroke-linecap="round" stroke-linejoin="round"/>
</svg>
