<svg width="21" height="18" viewBox="0 0 21 18" fill="none" xmlns="http://www.w3.org/2000/svg">
<path d="M20.0242 3.14285H6.92894M4.54799 3.14285H0.976562M20.0242 15.0476H6.92894M4.54799 15.0476H0.976562M14.0718 9.09524H0.976562M20.0242 9.09524H16.4528M5.73847 0.761902C6.0542 0.761902 6.357 0.887327 6.58026 1.11058C6.80352 1.33384 6.92894 1.63664 6.92894 1.95238V4.33333C6.92894 4.64906 6.80352 4.95187 6.58026 5.17512C6.357 5.39838 6.0542 5.52381 5.73847 5.52381C5.42273 5.52381 5.11993 5.39838 4.89667 5.17512C4.67342 4.95187 4.54799 4.64906 4.54799 4.33333V1.95238C4.54799 1.63664 4.67342 1.33384 4.89667 1.11058C5.11993 0.887327 5.42273 0.761902 5.73847 0.761902V0.761902ZM5.73847 12.6667C6.0542 12.6667 6.357 12.7921 6.58026 13.0153C6.80352 13.2386 6.92894 13.5414 6.92894 13.8571V16.2381C6.92894 16.5538 6.80352 16.8566 6.58026 17.0799C6.357 17.3031 6.0542 17.4286 5.73847 17.4286C5.42273 17.4286 5.11993 17.3031 4.89667 17.0799C4.67342 16.8566 4.54799 16.5538 4.54799 16.2381V13.8571C4.54799 13.5414 4.67342 13.2386 4.89667 13.0153C5.11993 12.7921 5.42273 12.6667 5.73847 12.6667ZM15.2623 6.71428C15.578 6.71428 15.8808 6.83971 16.1041 7.06297C16.3273 7.28622 16.4528 7.58903 16.4528 7.90476V10.2857C16.4528 10.6014 16.3273 10.9042 16.1041 11.1275C15.8808 11.3508 15.578 11.4762 15.2623 11.4762C14.9465 11.4762 14.6437 11.3508 14.4205 11.1275C14.1972 10.9042 14.0718 10.6014 14.0718 10.2857V7.90476C14.0718 7.58903 14.1972 7.28622 14.4205 7.06297C14.6437 6.83971 14.9465 6.71428 15.2623 6.71428V6.71428Z" stroke="#333333" stroke-linecap="round" stroke-linejoin="round"/>
</svg>
