<svg class="phone" width="20" height="21" viewBox="0 0 20 21" fill="none" xmlns="http://www.w3.org/2000/svg">
<path d="M17.5013 20.25H17.3738C2.63629 19.4025 0.543784 6.9675 0.251284 3.1725C0.227716 2.87744 0.262601 2.58062 0.35394 2.29906C0.44528 2.0175 0.591279 1.75673 0.783572 1.53169C0.975866 1.30665 1.21067 1.12177 1.47454 0.98763C1.73841 0.853493 2.02615 0.772741 2.32128 0.750001H6.45379C6.7542 0.74971 7.04779 0.839633 7.29651 1.00812C7.54523 1.17661 7.73763 1.4159 7.84879 1.695L8.98878 4.5C9.09855 4.77266 9.12579 5.07156 9.06712 5.35957C9.00845 5.64758 8.86646 5.912 8.65878 6.12L7.06129 7.7325C7.31082 9.15056 7.98992 10.4578 9.00671 11.4772C10.0235 12.4967 11.3289 13.1792 12.7463 13.4325L14.3738 11.82C14.5849 11.6146 14.8518 11.4759 15.1412 11.4213C15.4307 11.3666 15.7298 11.3983 16.0013 11.5125L18.8288 12.645C19.1037 12.7597 19.3382 12.9536 19.5025 13.202C19.6668 13.4504 19.7534 13.7422 19.7513 14.04V18C19.7513 18.5967 19.5142 19.169 19.0923 19.591C18.6703 20.0129 18.098 20.25 17.5013 20.25ZM2.50128 2.25C2.30237 2.25 2.11161 2.32902 1.97095 2.46967C1.8303 2.61032 1.75128 2.80109 1.75128 3V3.06C2.09628 7.5 4.30878 18 17.4563 18.75C17.5548 18.7561 17.6536 18.7427 17.7469 18.7105C17.8402 18.6783 17.9263 18.6281 18.0002 18.5626C18.074 18.4971 18.1342 18.4176 18.1773 18.3288C18.2204 18.24 18.2456 18.1436 18.2513 18.045V14.04L15.4238 12.9075L13.2713 15.045L12.9113 15C6.38628 14.1825 5.50128 7.6575 5.50128 7.59L5.45628 7.23L7.58629 5.0775L6.46129 2.25H2.50128Z" fill="white"/>
</svg>
